<svg xmlns="http://www.w3.org/2000/svg" width="40.804" height="50.24" viewBox="0 0 40.804 50.24">
  <g id="delete" transform="translate(0.003 0.002)">
    <path id="Path_10088" data-name="Path 10088" d="M223.575,154.7a1.176,1.176,0,0,0-1.177,1.177v22.237a1.177,1.177,0,1,0,2.353,0V155.88A1.176,1.176,0,0,0,223.575,154.7Zm0,0" transform="translate(-196.234 -136.502)" fill="#ff2727"/>
    <path id="Path_10089" data-name="Path 10089" d="M105.575,154.7a1.176,1.176,0,0,0-1.177,1.177v22.237a1.177,1.177,0,1,0,2.353,0V155.88A1.176,1.176,0,0,0,105.575,154.7Zm0,0" transform="translate(-92.118 -136.502)" fill="#ff2727"/>
    <path id="Path_10090" data-name="Path 10090" d="M3.338,14.955V43.944a6.491,6.491,0,0,0,1.726,4.477,5.794,5.794,0,0,0,4.2,1.818H31.529a5.793,5.793,0,0,0,4.2-1.818,6.491,6.491,0,0,0,1.726-4.477V14.955a4.494,4.494,0,0,0-1.153-8.839H30.282V4.646A4.622,4.622,0,0,0,25.622,0H15.175a4.622,4.622,0,0,0-4.659,4.647V6.117H4.491a4.494,4.494,0,0,0-1.153,8.839Zm28.191,32.93H9.268a3.726,3.726,0,0,1-3.577-3.942V15.059H35.106V43.944a3.726,3.726,0,0,1-3.577,3.942ZM12.869,4.646a2.267,2.267,0,0,1,2.306-2.294H25.622a2.267,2.267,0,0,1,2.306,2.294V6.117H12.869ZM4.491,8.47H36.306a2.118,2.118,0,1,1,0,4.236H4.491a2.118,2.118,0,0,1,0-4.236Zm0,0" transform="translate(0 0)" fill="#ff2727"/>
    <path id="Path_10091" data-name="Path 10091" d="M164.575,154.7a1.176,1.176,0,0,0-1.177,1.177v22.237a1.177,1.177,0,1,0,2.353,0V155.88A1.176,1.176,0,0,0,164.575,154.7Zm0,0" transform="translate(-144.176 -136.502)" fill="#ff2727"/>
  </g>
</svg>
