<svg id="Not-found-item" xmlns="http://www.w3.org/2000/svg" width="193.778" height="161.827" viewBox="0 0 193.778 161.827">
  <g id="BACKGROUND" transform="translate(0 0)">
    <ellipse id="Ellipse_1011" data-name="Ellipse 1011" cx="94.175" cy="67.13" rx="94.175" ry="67.13" fill="#ebf3fa"/>
  </g>
  <g id="OBJECTS" transform="translate(12.515 9.867)">
    <path id="Path_37311" data-name="Path 37311" d="M356.638,76.531A15.574,15.574,0,0,0,346.15,103.2a1.942,1.942,0,0,1,.562,1.712l-1.157,6.826,7.1-4.135a1.91,1.91,0,0,1,1.339-.231,15.578,15.578,0,1,0,2.646-30.844Z" transform="translate(-275.415 -76.526)" fill="#8bc0e7"/>
    <path id="Path_37312" data-name="Path 37312" d="M372.2,110.071l-.04-3.727a7.449,7.449,0,0,0,1.485-.518,5.58,5.58,0,0,0,1.181-.736,4.208,4.208,0,0,0,.846-.939,4.046,4.046,0,0,0,.518-1.1,4.39,4.39,0,0,0,.178-1.254,3.642,3.642,0,0,0-1.784-3.14,3.884,3.884,0,0,0-2.051-.518,4.269,4.269,0,0,0-2.367.7,4.406,4.406,0,0,0-1.667,2.4l-.4-.267a4.682,4.682,0,0,1,1.7-2.468,4.831,4.831,0,0,1,5-.316,4.01,4.01,0,0,1,2.084,3.593,4.543,4.543,0,0,1-.3,1.651,4.9,4.9,0,0,1-.838,1.412,5.368,5.368,0,0,1-1.315,1.113,6.146,6.146,0,0,1-1.74.716l-.044,3.395Zm-.263,2.776a.732.732,0,0,1,.154-.473.607.607,0,0,1,.862,0,.809.809,0,0,1,.129.486.769.769,0,0,1-.142.461.494.494,0,0,1-.429.2.526.526,0,0,1-.433-.174.761.761,0,0,1-.142-.5Z" transform="translate(-291.249 -89.098)"/>
    <path id="Path_37313" data-name="Path 37313" d="M275.341,191.985a10.821,10.821,0,0,0,6.941-2.518l5.4-4.506a10.306,10.306,0,0,1,6.636-2.5H321.14a4.41,4.41,0,0,1,4.406,4.406V283.95a7.607,7.607,0,0,1-7.6,7.607h-133.7a5.915,5.915,0,0,1-5.911-5.916V197.888a5.911,5.911,0,0,1,5.911-5.9Z" transform="translate(-178.269 -139.597)" fill="#599fd0"/>
    <path id="Path_37314" data-name="Path 37314" d="M178.241,318.923s9.1-17.063,10.006-19.017l24.868-50.654a3.8,3.8,0,0,1,3.455-2.205h92.4a19.653,19.653,0,0,0,10.8-3.913l3.731-3.112a10.305,10.305,0,0,1,6.62-2.492h25.519a3.811,3.811,0,0,1,3.524,5.26L328.3,317.43a11.188,11.188,0,0,1-10.338,6.915H179.908a1.756,1.756,0,0,1-1.728-1.671Z" transform="translate(-178.18 -172.385)" fill="#8bc0e7"/>
    <line id="Line_449" data-name="Line 449" x1="36.484" y2="70.925" transform="translate(1.161 79.469)" fill="none" stroke="#000" stroke-linejoin="round" stroke-width="1"/>
    <path id="Path_37315" data-name="Path 37315" d="M304.686,295.876H336.1a2.521,2.521,0,0,0,2.116-1.145h0a2.464,2.464,0,0,0-2.116-3.791h-31.41a2.517,2.517,0,0,0-2.116,1.141h0a2.468,2.468,0,0,0,2.116,3.8Z" transform="translate(-252.009 -204.184)" fill="none" stroke="#000" stroke-linejoin="round" stroke-width="1"/>
    <line id="Line_450" data-name="Line 450" x1="24.467" y2="14.582" transform="translate(87.001 116.066)" fill="none" stroke="#000" stroke-linecap="round" stroke-linejoin="round" stroke-width="1"/>
    <line id="Line_451" data-name="Line 451" x2="15.375" y2="15.367" transform="translate(91.464 115.366)" fill="none" stroke="#000" stroke-linecap="round" stroke-linejoin="round" stroke-width="1"/>
    <ellipse id="Ellipse_1012" data-name="Ellipse 1012" cx="18.398" cy="13.903" rx="18.398" ry="13.903" transform="translate(78.092 114.76) rotate(-15.46)" fill="none" stroke="#000" stroke-linecap="round" stroke-linejoin="round" stroke-width="1"/>
  </g>
</svg>
